<svg xmlns="http://www.w3.org/2000/svg" xmlns:xlink="http://www.w3.org/1999/xlink" width="1000" zoomAndPan="magnify" viewBox="0 0 750 449.999984" height="600" preserveAspectRatio="xMidYMid meet" version="1.0"><defs><g/><clipPath id="f8b30730b2"><path d="M 234.296875 0.691406 L 497.671875 0.691406 L 497.671875 264.066406 L 234.296875 264.066406 Z M 234.296875 0.691406 " clip-rule="nonzero"/></clipPath><clipPath id="f8ed61ab99"><rect x="0" width="733" y="0" height="426"/></clipPath></defs><g transform="matrix(1, 0, 0, 1, 9, 14)"><g clip-path="url(#f8ed61ab99)"><g fill="#ff721b" fill-opacity="1"><g transform="translate(0.42614, 348.284848)"><g><path d="M 5.140625 0 L 5.140625 -42.125 L 18.671875 -42.125 L 18.671875 0 Z M 5.140625 0 "/></g></g></g><g fill="#ff721b" fill-opacity="1"><g transform="translate(24.237818, 348.284848)"><g><path d="M 22.765625 -42.125 C 37.503906 -42.125 44.875 -35.101562 44.875 -21.0625 C 44.875 -7.019531 37.503906 0 22.765625 0 L 4.53125 0 L 4.53125 -42.125 Z M 18.0625 -10.09375 L 22.53125 -10.09375 C 28.195312 -10.09375 31.03125 -13.132812 31.03125 -19.21875 L 31.03125 -22.890625 C 31.03125 -28.972656 28.195312 -32.015625 22.53125 -32.015625 L 18.0625 -32.015625 Z M 18.0625 -10.09375 "/></g></g></g><g fill="#ff721b" fill-opacity="1"><g transform="translate(71.861162, 348.284848)"><g><path d="M 4.53125 -42.125 L 40.953125 -42.125 L 40.953125 -32.015625 L 18.0625 -32.015625 L 18.0625 -26.203125 L 37.65625 -26.203125 L 37.65625 -16.53125 L 18.0625 -16.53125 L 18.0625 -10.09375 L 41.390625 -10.09375 L 41.390625 0 L 4.53125 0 Z M 4.53125 -42.125 "/></g></g></g><g fill="#ff721b" fill-opacity="1"><g transform="translate(116.056607, 348.284848)"><g><path d="M 34.65625 0 L 16.953125 -20.453125 L 16.953125 0 L 4.53125 0 L 4.53125 -42.125 L 16.34375 -42.125 L 34.03125 -21.359375 L 34.03125 -42.125 L 46.46875 -42.125 L 46.46875 0 Z M 34.65625 0 "/></g></g></g><g fill="#ff721b" fill-opacity="1"><g transform="translate(167.046648, 348.284848)"><g><path d="M 28.765625 -31.34375 L 28.765625 0 L 15.25 0 L 15.25 -31.34375 L 1.40625 -31.34375 L 1.40625 -42.125 L 42.546875 -42.125 L 42.546875 -31.34375 Z M 28.765625 -31.34375 "/></g></g></g><g fill="#ff721b" fill-opacity="1"><g transform="translate(211.24208, 348.284848)"><g><path d="M 5.140625 0 L 5.140625 -42.125 L 18.671875 -42.125 L 18.671875 0 Z M 5.140625 0 "/></g></g></g><g fill="#ff721b" fill-opacity="1"><g transform="translate(235.053783, 348.284848)"><g><path d="M 4.53125 -42.125 L 38.5625 -42.125 L 38.5625 -32.015625 L 18.0625 -32.015625 L 18.0625 -24.796875 L 35.6875 -24.796875 L 35.6875 -15.125 L 18.0625 -15.125 L 18.0625 0 L 4.53125 0 Z M 4.53125 -42.125 "/></g></g></g><g fill="#ff721b" fill-opacity="1"><g transform="translate(275.882519, 348.284848)"><g><path d="M 5.140625 0 L 5.140625 -42.125 L 18.671875 -42.125 L 18.671875 0 Z M 5.140625 0 "/></g></g></g><g fill="#ff721b" fill-opacity="1"><g transform="translate(299.694222, 348.284848)"><g><path d="M 24.609375 -42.859375 C 30.847656 -42.859375 35.785156 -41.296875 39.421875 -38.171875 C 43.054688 -35.046875 44.875 -30.585938 44.875 -24.796875 L 31.953125 -24.796875 C 31.953125 -27.242188 31.304688 -29.179688 30.015625 -30.609375 C 28.734375 -32.035156 26.910156 -32.75 24.546875 -32.75 C 21.816406 -32.75 19.804688 -31.890625 18.515625 -30.171875 C 17.234375 -28.460938 16.59375 -26.078125 16.59375 -23.015625 L 16.59375 -19.09375 C 16.59375 -16.070312 17.234375 -13.691406 18.515625 -11.953125 C 19.804688 -10.222656 21.773438 -9.359375 24.421875 -9.359375 C 27.035156 -9.359375 29.015625 -10.03125 30.359375 -11.375 C 31.710938 -12.726562 32.390625 -14.628906 32.390625 -17.078125 L 44.875 -17.078125 C 44.875 -11.328125 43.109375 -6.921875 39.578125 -3.859375 C 36.046875 -0.796875 31.054688 0.734375 24.609375 0.734375 C 17.421875 0.734375 11.976562 -1.097656 8.28125 -4.765625 C 4.59375 -8.441406 2.75 -13.875 2.75 -21.0625 C 2.75 -28.238281 4.59375 -33.664062 8.28125 -37.34375 C 11.976562 -41.019531 17.421875 -42.859375 24.609375 -42.859375 Z M 24.609375 -42.859375 "/></g></g></g><g fill="#ff721b" fill-opacity="1"><g transform="translate(347.317554, 348.284848)"><g><path d="M 32.75 0 L 30.984375 -5.9375 L 16.21875 -5.9375 L 14.453125 0 L 0.609375 0 L 15.984375 -42.125 L 31.71875 -42.125 L 47.078125 0 Z M 19.03125 -15.359375 L 28.15625 -15.359375 L 23.75 -30.359375 L 23.515625 -30.359375 Z M 19.03125 -15.359375 "/></g></g></g><g fill="#000000" fill-opacity="1"><g transform="translate(394.947572, 348.284848)"><g/></g></g><g fill="#ffffff" fill-opacity="1"><g transform="translate(415.334976, 348.284848)"><g><path d="M 4.53125 -42.125 L 40.953125 -42.125 L 40.953125 -32.015625 L 18.0625 -32.015625 L 18.0625 -26.203125 L 37.65625 -26.203125 L 37.65625 -16.53125 L 18.0625 -16.53125 L 18.0625 -10.09375 L 41.390625 -10.09375 L 41.390625 0 L 4.53125 0 Z M 4.53125 -42.125 "/></g></g></g><g fill="#ffffff" fill-opacity="1"><g transform="translate(459.530421, 348.284848)"><g><path d="M 47.625 0 L 31.21875 0 L 23.453125 -13.09375 L 23.203125 -13.09375 L 15.421875 0 L 0.25 0 L 15.296875 -22.28125 L 1.71875 -42.125 L 18.0625 -42.125 L 24.421875 -31.34375 L 24.671875 -31.34375 L 31.09375 -42.125 L 46.21875 -42.125 L 32.5625 -22.21875 Z M 47.625 0 "/></g></g></g><g fill="#ffffff" fill-opacity="1"><g transform="translate(507.153765, 348.284848)"><g><path d="M 28.15625 -42.125 C 30.769531 -42.125 33.097656 -41.519531 35.140625 -40.3125 C 37.179688 -39.101562 38.769531 -37.445312 39.90625 -35.34375 C 41.050781 -33.25 41.625 -30.894531 41.625 -28.28125 L 41.625 -27.484375 C 41.625 -24.867188 41.050781 -22.5 39.90625 -20.375 C 38.769531 -18.257812 37.179688 -16.597656 35.140625 -15.390625 C 33.097656 -14.191406 30.769531 -13.59375 28.15625 -13.59375 L 18.0625 -13.59375 L 18.0625 0 L 4.53125 0 L 4.53125 -42.125 Z M 18.0625 -23.453125 L 23.625 -23.453125 C 25.050781 -23.453125 26.125 -23.816406 26.84375 -24.546875 C 27.5625 -25.285156 27.921875 -26.285156 27.921875 -27.546875 L 27.921875 -28.03125 C 27.921875 -29.34375 27.5625 -30.351562 26.84375 -31.0625 C 26.125 -31.78125 25.050781 -32.140625 23.625 -32.140625 L 18.0625 -32.140625 Z M 18.0625 -23.453125 "/></g></g></g><g fill="#ffffff" fill-opacity="1"><g transform="translate(551.34921, 348.284848)"><g><path d="M 44.5 -29.203125 C 44.5 -26.628906 43.804688 -24.300781 42.421875 -22.21875 C 41.035156 -20.132812 39.015625 -18.601562 36.359375 -17.625 L 45.734375 0 L 30.546875 0 L 23.078125 -15.359375 L 18.0625 -15.359375 L 18.0625 0 L 4.53125 0 L 4.53125 -42.125 L 30.296875 -42.125 C 33.316406 -42.125 35.898438 -41.539062 38.046875 -40.375 C 40.191406 -39.207031 41.800781 -37.632812 42.875 -35.65625 C 43.957031 -33.675781 44.5 -31.523438 44.5 -29.203125 Z M 30.734375 -28.65625 C 30.734375 -29.75 30.363281 -30.660156 29.625 -31.390625 C 28.894531 -32.128906 28 -32.5 26.9375 -32.5 L 18.0625 -32.5 L 18.0625 -24.734375 L 26.9375 -24.734375 C 28 -24.734375 28.894531 -25.109375 29.625 -25.859375 C 30.363281 -26.617188 30.734375 -27.550781 30.734375 -28.65625 Z M 30.734375 -28.65625 "/></g></g></g><g fill="#ffffff" fill-opacity="1"><g transform="translate(598.972554, 348.284848)"><g><path d="M 4.53125 -42.125 L 40.953125 -42.125 L 40.953125 -32.015625 L 18.0625 -32.015625 L 18.0625 -26.203125 L 37.65625 -26.203125 L 37.65625 -16.53125 L 18.0625 -16.53125 L 18.0625 -10.09375 L 41.390625 -10.09375 L 41.390625 0 L 4.53125 0 Z M 4.53125 -42.125 "/></g></g></g><g fill="#ffffff" fill-opacity="1"><g transform="translate(643.167999, 348.284848)"><g><path d="M 22.21875 -42.859375 C 27.601562 -42.859375 32.03125 -41.765625 35.5 -39.578125 C 38.96875 -37.390625 40.742188 -34.15625 40.828125 -29.875 L 40.828125 -29.140625 L 28.15625 -29.140625 L 28.15625 -29.390625 C 28.15625 -30.609375 27.707031 -31.625 26.8125 -32.4375 C 25.914062 -33.257812 24.550781 -33.671875 22.71875 -33.671875 C 20.914062 -33.671875 19.535156 -33.40625 18.578125 -32.875 C 17.617188 -32.34375 17.140625 -31.691406 17.140625 -30.921875 C 17.140625 -29.816406 17.789062 -29 19.09375 -28.46875 C 20.40625 -27.9375 22.507812 -27.382812 25.40625 -26.8125 C 28.789062 -26.113281 31.570312 -25.390625 33.75 -24.640625 C 35.9375 -23.890625 37.847656 -22.65625 39.484375 -20.9375 C 41.117188 -19.21875 41.957031 -16.890625 42 -13.953125 C 42 -8.972656 40.3125 -5.28125 36.9375 -2.875 C 33.570312 -0.46875 29.078125 0.734375 23.453125 0.734375 C 16.878906 0.734375 11.765625 -0.363281 8.109375 -2.5625 C 4.453125 -4.769531 2.625 -8.671875 2.625 -14.265625 L 15.421875 -14.265625 C 15.421875 -12.140625 15.972656 -10.71875 17.078125 -10 C 18.179688 -9.289062 19.894531 -8.9375 22.21875 -8.9375 C 23.9375 -8.9375 25.351562 -9.117188 26.46875 -9.484375 C 27.59375 -9.859375 28.15625 -10.613281 28.15625 -11.75 C 28.15625 -12.769531 27.53125 -13.535156 26.28125 -14.046875 C 25.039062 -14.554688 23.015625 -15.097656 20.203125 -15.671875 C 16.773438 -16.410156 13.9375 -17.175781 11.6875 -17.96875 C 9.445312 -18.757812 7.488281 -20.070312 5.8125 -21.90625 C 4.144531 -23.75 3.3125 -26.242188 3.3125 -29.390625 C 3.3125 -33.992188 5.09375 -37.390625 8.65625 -39.578125 C 12.226562 -41.765625 16.75 -42.859375 22.21875 -42.859375 Z M 22.21875 -42.859375 "/></g></g></g><g fill="#ffffff" fill-opacity="1"><g transform="translate(687.363443, 348.284848)"><g><path d="M 22.21875 -42.859375 C 27.601562 -42.859375 32.03125 -41.765625 35.5 -39.578125 C 38.96875 -37.390625 40.742188 -34.15625 40.828125 -29.875 L 40.828125 -29.140625 L 28.15625 -29.140625 L 28.15625 -29.390625 C 28.15625 -30.609375 27.707031 -31.625 26.8125 -32.4375 C 25.914062 -33.257812 24.550781 -33.671875 22.71875 -33.671875 C 20.914062 -33.671875 19.535156 -33.40625 18.578125 -32.875 C 17.617188 -32.34375 17.140625 -31.691406 17.140625 -30.921875 C 17.140625 -29.816406 17.789062 -29 19.09375 -28.46875 C 20.40625 -27.9375 22.507812 -27.382812 25.40625 -26.8125 C 28.789062 -26.113281 31.570312 -25.390625 33.75 -24.640625 C 35.9375 -23.890625 37.847656 -22.65625 39.484375 -20.9375 C 41.117188 -19.21875 41.957031 -16.890625 42 -13.953125 C 42 -8.972656 40.3125 -5.28125 36.9375 -2.875 C 33.570312 -0.46875 29.078125 0.734375 23.453125 0.734375 C 16.878906 0.734375 11.765625 -0.363281 8.109375 -2.5625 C 4.453125 -4.769531 2.625 -8.671875 2.625 -14.265625 L 15.421875 -14.265625 C 15.421875 -12.140625 15.972656 -10.71875 17.078125 -10 C 18.179688 -9.289062 19.894531 -8.9375 22.21875 -8.9375 C 23.9375 -8.9375 25.351562 -9.117188 26.46875 -9.484375 C 27.59375 -9.859375 28.15625 -10.613281 28.15625 -11.75 C 28.15625 -12.769531 27.53125 -13.535156 26.28125 -14.046875 C 25.039062 -14.554688 23.015625 -15.097656 20.203125 -15.671875 C 16.773438 -16.410156 13.9375 -17.175781 11.6875 -17.96875 C 9.445312 -18.757812 7.488281 -20.070312 5.8125 -21.90625 C 4.144531 -23.75 3.3125 -26.242188 3.3125 -29.390625 C 3.3125 -33.992188 5.09375 -37.390625 8.65625 -39.578125 C 12.226562 -41.765625 16.75 -42.859375 22.21875 -42.859375 Z M 22.21875 -42.859375 "/></g></g></g><g clip-path="url(#f8b30730b2)"><path fill="#ffffff" d="M 366 0.691406 C 293.371094 0.691406 234.296875 59.773438 234.296875 132.390625 L 284.953125 132.390625 C 284.953125 87.632812 321.242188 51.34375 366 51.34375 C 410.753906 51.34375 447.042969 87.632812 447.042969 132.390625 C 447.042969 177.148438 410.753906 213.4375 366 213.4375 L 366 264.089844 C 438.625 264.089844 497.699219 205.007812 497.699219 132.390625 C 497.699219 59.773438 438.625 0.691406 366 0.691406 Z M 366 213.4375 L 366 152.652344 L 305.214844 152.652344 L 305.214844 213.4375 Z M 305.214844 213.4375 L 264.691406 213.4375 L 264.691406 253.960938 L 305.214844 253.960938 Z M 264.691406 213.4375 L 264.691406 183.042969 L 234.296875 183.042969 L 234.296875 213.4375 Z M 264.691406 213.4375 " fill-opacity="1" fill-rule="nonzero"/></g><g fill="#ffffff" fill-opacity="1"><g transform="translate(129.858477, 410.732384)"><g><path d="M 18.578125 -28.265625 C 15.878906 -28.265625 13.789062 -27.25 12.3125 -25.21875 C 10.84375 -23.195312 10.109375 -20.378906 10.109375 -16.765625 C 10.109375 -9.242188 12.929688 -5.484375 18.578125 -5.484375 C 20.941406 -5.484375 23.804688 -6.078125 27.171875 -7.265625 L 27.171875 -1.265625 C 24.410156 -0.109375 21.320312 0.46875 17.90625 0.46875 C 13 0.46875 9.242188 -1.019531 6.640625 -4 C 4.046875 -6.976562 2.75 -11.25 2.75 -16.8125 C 2.75 -20.320312 3.382812 -23.394531 4.65625 -26.03125 C 5.9375 -28.675781 7.769531 -30.703125 10.15625 -32.109375 C 12.550781 -33.515625 15.359375 -34.21875 18.578125 -34.21875 C 21.847656 -34.21875 25.140625 -33.425781 28.453125 -31.84375 L 26.140625 -26.03125 C 24.878906 -26.625 23.609375 -27.144531 22.328125 -27.59375 C 21.054688 -28.039062 19.804688 -28.265625 18.578125 -28.265625 Z M 18.578125 -28.265625 "/></g></g></g><g fill="#ffffff" fill-opacity="1"><g transform="translate(159.962306, 410.732384)"><g><path d="M 14.375 -21.265625 C 12.882812 -21.265625 11.710938 -20.789062 10.859375 -19.84375 C 10.015625 -18.90625 9.53125 -17.566406 9.40625 -15.828125 L 19.28125 -15.828125 C 19.25 -17.566406 18.796875 -18.90625 17.921875 -19.84375 C 17.046875 -20.789062 15.863281 -21.265625 14.375 -21.265625 Z M 15.359375 0.46875 C 11.210938 0.46875 7.96875 -0.675781 5.625 -2.96875 C 3.289062 -5.257812 2.125 -8.507812 2.125 -12.71875 C 2.125 -17.039062 3.203125 -20.378906 5.359375 -22.734375 C 7.523438 -25.097656 10.515625 -26.28125 14.328125 -26.28125 C 17.972656 -26.28125 20.8125 -25.238281 22.84375 -23.15625 C 24.875 -21.082031 25.890625 -18.21875 25.890625 -14.5625 L 25.890625 -11.140625 L 9.25 -11.140625 C 9.320312 -9.140625 9.910156 -7.578125 11.015625 -6.453125 C 12.128906 -5.335938 13.6875 -4.78125 15.6875 -4.78125 C 17.238281 -4.78125 18.707031 -4.941406 20.09375 -5.265625 C 21.476562 -5.585938 22.925781 -6.101562 24.4375 -6.8125 L 24.4375 -1.359375 C 23.207031 -0.742188 21.890625 -0.285156 20.484375 0.015625 C 19.085938 0.316406 17.378906 0.46875 15.359375 0.46875 Z M 15.359375 0.46875 "/></g></g></g><g fill="#ffffff" fill-opacity="1"><g transform="translate(187.874669, 410.732384)"><g><path d="M 18.09375 -26.28125 C 19.039062 -26.28125 19.832031 -26.210938 20.46875 -26.078125 L 19.9375 -19.46875 C 19.363281 -19.625 18.671875 -19.703125 17.859375 -19.703125 C 15.609375 -19.703125 13.859375 -19.125 12.609375 -17.96875 C 11.359375 -16.820312 10.734375 -15.207031 10.734375 -13.125 L 10.734375 0 L 3.6875 0 L 3.6875 -25.796875 L 9.015625 -25.796875 L 10.0625 -21.453125 L 10.40625 -21.453125 C 11.207031 -22.898438 12.285156 -24.066406 13.640625 -24.953125 C 15.003906 -25.835938 16.488281 -26.28125 18.09375 -26.28125 Z M 18.09375 -26.28125 "/></g></g></g><g fill="#ffffff" fill-opacity="1"><g transform="translate(209.327972, 410.732384)"><g><path d="M 14.5625 -5.140625 C 15.789062 -5.140625 17.265625 -5.410156 18.984375 -5.953125 L 18.984375 -0.71875 C 17.234375 0.0703125 15.082031 0.46875 12.53125 0.46875 C 9.71875 0.46875 7.664062 -0.242188 6.375 -1.671875 C 5.09375 -3.097656 4.453125 -5.234375 4.453125 -8.078125 L 4.453125 -20.515625 L 1.078125 -20.515625 L 1.078125 -23.484375 L 4.953125 -25.84375 L 6.984375 -31.28125 L 11.484375 -31.28125 L 11.484375 -25.796875 L 18.703125 -25.796875 L 18.703125 -20.515625 L 11.484375 -20.515625 L 11.484375 -8.078125 C 11.484375 -7.078125 11.765625 -6.335938 12.328125 -5.859375 C 12.890625 -5.378906 13.632812 -5.140625 14.5625 -5.140625 Z M 14.5625 -5.140625 "/></g></g></g><g fill="#ffffff" fill-opacity="1"><g transform="translate(229.835485, 410.732384)"><g><path d="M 3.390625 -32.46875 C 3.390625 -34.757812 4.664062 -35.90625 7.21875 -35.90625 C 9.769531 -35.90625 11.046875 -34.757812 11.046875 -32.46875 C 11.046875 -31.375 10.726562 -30.519531 10.09375 -29.90625 C 9.457031 -29.300781 8.5 -29 7.21875 -29 C 4.664062 -29 3.390625 -30.15625 3.390625 -32.46875 Z M 10.734375 0 L 3.6875 0 L 3.6875 -25.796875 L 10.734375 -25.796875 Z M 10.734375 0 "/></g></g></g><g fill="#ffffff" fill-opacity="1"><g transform="translate(244.253027, 410.732384)"><g><path d="M 17.953125 -20.515625 L 11.859375 -20.515625 L 11.859375 0 L 4.828125 0 L 4.828125 -20.515625 L 0.953125 -20.515625 L 0.953125 -23.90625 L 4.828125 -25.796875 L 4.828125 -27.6875 C 4.828125 -30.625 5.546875 -32.769531 6.984375 -34.125 C 8.429688 -35.476562 10.75 -36.15625 13.9375 -36.15625 C 16.363281 -36.15625 18.523438 -35.789062 20.421875 -35.0625 L 18.625 -29.90625 C 17.207031 -30.34375 15.898438 -30.5625 14.703125 -30.5625 C 13.703125 -30.5625 12.976562 -30.265625 12.53125 -29.671875 C 12.082031 -29.085938 11.859375 -28.332031 11.859375 -27.40625 L 11.859375 -25.796875 L 17.953125 -25.796875 Z M 17.953125 -20.515625 "/></g></g></g><g fill="#ffffff" fill-opacity="1"><g transform="translate(262.546005, 410.732384)"><g><path d="M 3.390625 -32.46875 C 3.390625 -34.757812 4.664062 -35.90625 7.21875 -35.90625 C 9.769531 -35.90625 11.046875 -34.757812 11.046875 -32.46875 C 11.046875 -31.375 10.726562 -30.519531 10.09375 -29.90625 C 9.457031 -29.300781 8.5 -29 7.21875 -29 C 4.664062 -29 3.390625 -30.15625 3.390625 -32.46875 Z M 10.734375 0 L 3.6875 0 L 3.6875 -25.796875 L 10.734375 -25.796875 Z M 10.734375 0 "/></g></g></g><g fill="#ffffff" fill-opacity="1"><g transform="translate(276.963548, 410.732384)"><g><path d="M 14.171875 0.46875 C 6.140625 0.46875 2.125 -3.941406 2.125 -12.765625 C 2.125 -17.140625 3.210938 -20.484375 5.390625 -22.796875 C 7.578125 -25.117188 10.707031 -26.28125 14.78125 -26.28125 C 17.769531 -26.28125 20.445312 -25.695312 22.8125 -24.53125 L 20.734375 -19.078125 C 19.628906 -19.523438 18.597656 -19.890625 17.640625 -20.171875 C 16.691406 -20.460938 15.738281 -20.609375 14.78125 -20.609375 C 11.125 -20.609375 9.296875 -18.003906 9.296875 -12.796875 C 9.296875 -7.753906 11.125 -5.234375 14.78125 -5.234375 C 16.132812 -5.234375 17.390625 -5.414062 18.546875 -5.78125 C 19.703125 -6.144531 20.859375 -6.707031 22.015625 -7.46875 L 22.015625 -1.453125 C 20.867188 -0.734375 19.710938 -0.234375 18.546875 0.046875 C 17.390625 0.328125 15.929688 0.46875 14.171875 0.46875 Z M 14.171875 0.46875 "/></g></g></g><g fill="#ffffff" fill-opacity="1"><g transform="translate(301.254224, 410.732384)"><g><path d="M 20.078125 0 L 18.703125 -3.5 L 18.53125 -3.5 C 17.34375 -2.007812 16.117188 -0.972656 14.859375 -0.390625 C 13.609375 0.179688 11.976562 0.46875 9.96875 0.46875 C 7.488281 0.46875 5.535156 -0.238281 4.109375 -1.65625 C 2.691406 -3.070312 1.984375 -5.085938 1.984375 -7.703125 C 1.984375 -10.441406 2.941406 -12.460938 4.859375 -13.765625 C 6.773438 -15.066406 9.660156 -15.785156 13.515625 -15.921875 L 18 -16.0625 L 18 -17.1875 C 18 -19.800781 16.660156 -21.109375 13.984375 -21.109375 C 11.921875 -21.109375 9.5 -20.484375 6.71875 -19.234375 L 4.390625 -24 C 7.359375 -25.550781 10.648438 -26.328125 14.265625 -26.328125 C 17.722656 -26.328125 20.375 -25.570312 22.21875 -24.0625 C 24.0625 -22.550781 24.984375 -20.257812 24.984375 -17.1875 L 24.984375 0 Z M 18 -11.953125 L 15.265625 -11.859375 C 13.222656 -11.796875 11.703125 -11.425781 10.703125 -10.75 C 9.703125 -10.070312 9.203125 -9.039062 9.203125 -7.65625 C 9.203125 -5.675781 10.34375 -4.6875 12.625 -4.6875 C 14.25 -4.6875 15.550781 -5.15625 16.53125 -6.09375 C 17.507812 -7.03125 18 -8.273438 18 -9.828125 Z M 18 -11.953125 "/></g></g></g><g fill="#ffffff" fill-opacity="1"><g transform="translate(329.789424, 410.732384)"><g><path d="M 11.859375 0.46875 C 8.828125 0.46875 6.445312 -0.707031 4.71875 -3.0625 C 2.988281 -5.414062 2.125 -8.675781 2.125 -12.84375 C 2.125 -17.082031 3.003906 -20.378906 4.765625 -22.734375 C 6.523438 -25.097656 8.953125 -26.28125 12.046875 -26.28125 C 15.285156 -26.28125 17.757812 -25.019531 19.46875 -22.5 L 19.703125 -22.5 C 19.347656 -24.414062 19.171875 -26.128906 19.171875 -27.640625 L 19.171875 -35.90625 L 26.234375 -35.90625 L 26.234375 0 L 20.828125 0 L 19.46875 -3.34375 L 19.171875 -3.34375 C 17.566406 -0.800781 15.128906 0.46875 11.859375 0.46875 Z M 14.328125 -5.140625 C 16.128906 -5.140625 17.445312 -5.660156 18.28125 -6.703125 C 19.125 -7.753906 19.582031 -9.535156 19.65625 -12.046875 L 19.65625 -12.796875 C 19.65625 -15.566406 19.226562 -17.550781 18.375 -18.75 C 17.519531 -19.957031 16.132812 -20.5625 14.21875 -20.5625 C 12.644531 -20.5625 11.421875 -19.894531 10.546875 -18.5625 C 9.679688 -17.226562 9.25 -15.296875 9.25 -12.765625 C 9.25 -10.222656 9.6875 -8.316406 10.5625 -7.046875 C 11.4375 -5.773438 12.691406 -5.140625 14.328125 -5.140625 Z M 14.328125 -5.140625 "/></g></g></g><g fill="#ffffff" fill-opacity="1"><g transform="translate(359.685652, 410.732384)"><g><path d="M 9.296875 -12.9375 C 9.296875 -10.382812 9.710938 -8.453125 10.546875 -7.140625 C 11.390625 -5.835938 12.757812 -5.1875 14.65625 -5.1875 C 16.53125 -5.1875 17.878906 -5.835938 18.703125 -7.140625 C 19.523438 -8.441406 19.9375 -10.375 19.9375 -12.9375 C 19.9375 -15.488281 19.519531 -17.40625 18.6875 -18.6875 C 17.851562 -19.96875 16.492188 -20.609375 14.609375 -20.609375 C 12.734375 -20.609375 11.378906 -19.972656 10.546875 -18.703125 C 9.710938 -17.429688 9.296875 -15.507812 9.296875 -12.9375 Z M 27.125 -12.9375 C 27.125 -8.738281 26.015625 -5.453125 23.796875 -3.078125 C 21.585938 -0.710938 18.507812 0.46875 14.5625 0.46875 C 12.082031 0.46875 9.894531 -0.0703125 8 -1.15625 C 6.113281 -2.25 4.660156 -3.804688 3.640625 -5.828125 C 2.628906 -7.859375 2.125 -10.226562 2.125 -12.9375 C 2.125 -17.15625 3.222656 -20.429688 5.421875 -22.765625 C 7.617188 -25.109375 10.710938 -26.28125 14.703125 -26.28125 C 17.171875 -26.28125 19.351562 -25.738281 21.25 -24.65625 C 23.144531 -23.582031 24.597656 -22.035156 25.609375 -20.015625 C 26.617188 -18.003906 27.125 -15.644531 27.125 -12.9375 Z M 27.125 -12.9375 "/></g></g></g><g fill="#ffffff" fill-opacity="1"><g transform="translate(388.935962, 410.732384)"><g><path d="M 21.6875 -7.65625 C 21.6875 -5.007812 20.765625 -2.992188 18.921875 -1.609375 C 17.085938 -0.222656 14.34375 0.46875 10.6875 0.46875 C 8.8125 0.46875 7.210938 0.335938 5.890625 0.078125 C 4.566406 -0.171875 3.328125 -0.539062 2.171875 -1.03125 L 2.171875 -6.859375 C 3.472656 -6.234375 4.941406 -5.710938 6.578125 -5.296875 C 8.222656 -4.890625 9.664062 -4.6875 10.90625 -4.6875 C 13.46875 -4.6875 14.75 -5.421875 14.75 -6.890625 C 14.75 -7.453125 14.578125 -7.90625 14.234375 -8.25 C 13.898438 -8.59375 13.316406 -8.984375 12.484375 -9.421875 C 11.648438 -9.859375 10.539062 -10.367188 9.15625 -10.953125 C 7.175781 -11.785156 5.71875 -12.554688 4.78125 -13.265625 C 3.851562 -13.972656 3.175781 -14.785156 2.75 -15.703125 C 2.332031 -16.617188 2.125 -17.742188 2.125 -19.078125 C 2.125 -21.367188 3.007812 -23.140625 4.78125 -24.390625 C 6.5625 -25.648438 9.082031 -26.28125 12.34375 -26.28125 C 15.445312 -26.28125 18.46875 -25.601562 21.40625 -24.25 L 19.28125 -19.171875 C 17.988281 -19.722656 16.78125 -20.175781 15.65625 -20.53125 C 14.539062 -20.882812 13.398438 -21.0625 12.234375 -21.0625 C 10.148438 -21.0625 9.109375 -20.5 9.109375 -19.375 C 9.109375 -18.75 9.441406 -18.203125 10.109375 -17.734375 C 10.785156 -17.273438 12.253906 -16.59375 14.515625 -15.6875 C 16.523438 -14.875 18 -14.113281 18.9375 -13.40625 C 19.875 -12.695312 20.566406 -11.878906 21.015625 -10.953125 C 21.460938 -10.035156 21.6875 -8.9375 21.6875 -7.65625 Z M 21.6875 -7.65625 "/></g></g></g><g fill="#ffffff" fill-opacity="1"><g transform="translate(412.419231, 410.732384)"><g/></g></g><g fill="#ffffff" fill-opacity="1"><g transform="translate(424.691443, 410.732384)"><g><path d="M 32.234375 -17.1875 C 32.234375 -11.632812 30.648438 -7.378906 27.484375 -4.421875 C 24.328125 -1.472656 19.765625 0 13.796875 0 L 4.25 0 L 4.25 -33.734375 L 14.828125 -33.734375 C 20.335938 -33.734375 24.613281 -32.28125 27.65625 -29.375 C 30.707031 -26.46875 32.234375 -22.40625 32.234375 -17.1875 Z M 24.796875 -17 C 24.796875 -24.25 21.597656 -27.875 15.203125 -27.875 L 11.390625 -27.875 L 11.390625 -5.90625 L 14.46875 -5.90625 C 21.351562 -5.90625 24.796875 -9.601562 24.796875 -17 Z M 24.796875 -17 "/></g></g></g><g fill="#ffffff" fill-opacity="1"><g transform="translate(459.662635, 410.732384)"><g><path d="M 3.390625 -32.46875 C 3.390625 -34.757812 4.664062 -35.90625 7.21875 -35.90625 C 9.769531 -35.90625 11.046875 -34.757812 11.046875 -32.46875 C 11.046875 -31.375 10.726562 -30.519531 10.09375 -29.90625 C 9.457031 -29.300781 8.5 -29 7.21875 -29 C 4.664062 -29 3.390625 -30.15625 3.390625 -32.46875 Z M 10.734375 0 L 3.6875 0 L 3.6875 -25.796875 L 10.734375 -25.796875 Z M 10.734375 0 "/></g></g></g><g fill="#ffffff" fill-opacity="1"><g transform="translate(474.08019, 410.732384)"><g><path d="M 26.140625 -25.796875 L 26.140625 -22.21875 L 22.109375 -21.171875 C 22.835938 -20.023438 23.203125 -18.734375 23.203125 -17.296875 C 23.203125 -14.535156 22.238281 -12.378906 20.3125 -10.828125 C 18.382812 -9.285156 15.707031 -8.515625 12.28125 -8.515625 L 11 -8.578125 L 9.96875 -8.703125 C 9.238281 -8.148438 8.875 -7.535156 8.875 -6.859375 C 8.875 -5.835938 10.171875 -5.328125 12.765625 -5.328125 L 17.140625 -5.328125 C 19.972656 -5.328125 22.128906 -4.71875 23.609375 -3.5 C 25.097656 -2.289062 25.84375 -0.507812 25.84375 1.84375 C 25.84375 4.863281 24.582031 7.203125 22.0625 8.859375 C 19.550781 10.515625 15.941406 11.34375 11.234375 11.34375 C 7.640625 11.34375 4.890625 10.71875 2.984375 9.46875 C 1.085938 8.21875 0.140625 6.460938 0.140625 4.203125 C 0.140625 2.648438 0.625 1.347656 1.59375 0.296875 C 2.5625 -0.742188 3.984375 -1.488281 5.859375 -1.9375 C 5.140625 -2.25 4.507812 -2.753906 3.96875 -3.453125 C 3.425781 -4.148438 3.15625 -4.890625 3.15625 -5.671875 C 3.15625 -6.660156 3.441406 -7.476562 4.015625 -8.125 C 4.585938 -8.78125 5.410156 -9.425781 6.484375 -10.0625 C 5.128906 -10.644531 4.054688 -11.582031 3.265625 -12.875 C 2.472656 -14.164062 2.078125 -15.6875 2.078125 -17.4375 C 2.078125 -20.25 2.988281 -22.425781 4.8125 -23.96875 C 6.644531 -25.507812 9.265625 -26.28125 12.671875 -26.28125 C 13.390625 -26.28125 14.242188 -26.210938 15.234375 -26.078125 C 16.234375 -25.953125 16.867188 -25.859375 17.140625 -25.796875 Z M 6.234375 3.640625 C 6.234375 4.609375 6.695312 5.367188 7.625 5.921875 C 8.550781 6.484375 9.851562 6.765625 11.53125 6.765625 C 14.050781 6.765625 16.023438 6.414062 17.453125 5.71875 C 18.890625 5.03125 19.609375 4.085938 19.609375 2.890625 C 19.609375 1.921875 19.1875 1.25 18.34375 0.875 C 17.5 0.507812 16.191406 0.328125 14.421875 0.328125 L 10.78125 0.328125 C 9.488281 0.328125 8.40625 0.628906 7.53125 1.234375 C 6.664062 1.835938 6.234375 2.640625 6.234375 3.640625 Z M 8.796875 -17.34375 C 8.796875 -15.945312 9.113281 -14.835938 9.75 -14.015625 C 10.382812 -13.203125 11.359375 -12.796875 12.671875 -12.796875 C 13.992188 -12.796875 14.960938 -13.203125 15.578125 -14.015625 C 16.191406 -14.835938 16.5 -15.945312 16.5 -17.34375 C 16.5 -20.457031 15.222656 -22.015625 12.671875 -22.015625 C 10.085938 -22.015625 8.796875 -20.457031 8.796875 -17.34375 Z M 8.796875 -17.34375 "/></g></g></g><g fill="#ffffff" fill-opacity="1"><g transform="translate(500.769957, 410.732384)"><g><path d="M 3.390625 -32.46875 C 3.390625 -34.757812 4.664062 -35.90625 7.21875 -35.90625 C 9.769531 -35.90625 11.046875 -34.757812 11.046875 -32.46875 C 11.046875 -31.375 10.726562 -30.519531 10.09375 -29.90625 C 9.457031 -29.300781 8.5 -29 7.21875 -29 C 4.664062 -29 3.390625 -30.15625 3.390625 -32.46875 Z M 10.734375 0 L 3.6875 0 L 3.6875 -25.796875 L 10.734375 -25.796875 Z M 10.734375 0 "/></g></g></g><g fill="#ffffff" fill-opacity="1"><g transform="translate(515.187488, 410.732384)"><g><path d="M 14.5625 -5.140625 C 15.789062 -5.140625 17.265625 -5.410156 18.984375 -5.953125 L 18.984375 -0.71875 C 17.234375 0.0703125 15.082031 0.46875 12.53125 0.46875 C 9.71875 0.46875 7.664062 -0.242188 6.375 -1.671875 C 5.09375 -3.097656 4.453125 -5.234375 4.453125 -8.078125 L 4.453125 -20.515625 L 1.078125 -20.515625 L 1.078125 -23.484375 L 4.953125 -25.84375 L 6.984375 -31.28125 L 11.484375 -31.28125 L 11.484375 -25.796875 L 18.703125 -25.796875 L 18.703125 -20.515625 L 11.484375 -20.515625 L 11.484375 -8.078125 C 11.484375 -7.078125 11.765625 -6.335938 12.328125 -5.859375 C 12.890625 -5.378906 13.632812 -5.140625 14.5625 -5.140625 Z M 14.5625 -5.140625 "/></g></g></g><g fill="#ffffff" fill-opacity="1"><g transform="translate(535.694988, 410.732384)"><g><path d="M 20.078125 0 L 18.703125 -3.5 L 18.53125 -3.5 C 17.34375 -2.007812 16.117188 -0.972656 14.859375 -0.390625 C 13.609375 0.179688 11.976562 0.46875 9.96875 0.46875 C 7.488281 0.46875 5.535156 -0.238281 4.109375 -1.65625 C 2.691406 -3.070312 1.984375 -5.085938 1.984375 -7.703125 C 1.984375 -10.441406 2.941406 -12.460938 4.859375 -13.765625 C 6.773438 -15.066406 9.660156 -15.785156 13.515625 -15.921875 L 18 -16.0625 L 18 -17.1875 C 18 -19.800781 16.660156 -21.109375 13.984375 -21.109375 C 11.921875 -21.109375 9.5 -20.484375 6.71875 -19.234375 L 4.390625 -24 C 7.359375 -25.550781 10.648438 -26.328125 14.265625 -26.328125 C 17.722656 -26.328125 20.375 -25.570312 22.21875 -24.0625 C 24.0625 -22.550781 24.984375 -20.257812 24.984375 -17.1875 L 24.984375 0 Z M 18 -11.953125 L 15.265625 -11.859375 C 13.222656 -11.796875 11.703125 -11.425781 10.703125 -10.75 C 9.703125 -10.070312 9.203125 -9.039062 9.203125 -7.65625 C 9.203125 -5.675781 10.34375 -4.6875 12.625 -4.6875 C 14.25 -4.6875 15.550781 -5.15625 16.53125 -6.09375 C 17.507812 -7.03125 18 -8.273438 18 -9.828125 Z M 18 -11.953125 "/></g></g></g><g fill="#ffffff" fill-opacity="1"><g transform="translate(564.230225, 410.732384)"><g><path d="M 3.390625 -32.46875 C 3.390625 -34.757812 4.664062 -35.90625 7.21875 -35.90625 C 9.769531 -35.90625 11.046875 -34.757812 11.046875 -32.46875 C 11.046875 -31.375 10.726562 -30.519531 10.09375 -29.90625 C 9.457031 -29.300781 8.5 -29 7.21875 -29 C 4.664062 -29 3.390625 -30.15625 3.390625 -32.46875 Z M 10.734375 0 L 3.6875 0 L 3.6875 -25.796875 L 10.734375 -25.796875 Z M 10.734375 0 "/></g></g></g><g fill="#ffffff" fill-opacity="1"><g transform="translate(578.647756, 410.732384)"><g><path d="M 21.6875 -7.65625 C 21.6875 -5.007812 20.765625 -2.992188 18.921875 -1.609375 C 17.085938 -0.222656 14.34375 0.46875 10.6875 0.46875 C 8.8125 0.46875 7.210938 0.335938 5.890625 0.078125 C 4.566406 -0.171875 3.328125 -0.539062 2.171875 -1.03125 L 2.171875 -6.859375 C 3.472656 -6.234375 4.941406 -5.710938 6.578125 -5.296875 C 8.222656 -4.890625 9.664062 -4.6875 10.90625 -4.6875 C 13.46875 -4.6875 14.75 -5.421875 14.75 -6.890625 C 14.75 -7.453125 14.578125 -7.90625 14.234375 -8.25 C 13.898438 -8.59375 13.316406 -8.984375 12.484375 -9.421875 C 11.648438 -9.859375 10.539062 -10.367188 9.15625 -10.953125 C 7.175781 -11.785156 5.71875 -12.554688 4.78125 -13.265625 C 3.851562 -13.972656 3.175781 -14.785156 2.75 -15.703125 C 2.332031 -16.617188 2.125 -17.742188 2.125 -19.078125 C 2.125 -21.367188 3.007812 -23.140625 4.78125 -24.390625 C 6.5625 -25.648438 9.082031 -26.28125 12.34375 -26.28125 C 15.445312 -26.28125 18.46875 -25.601562 21.40625 -24.25 L 19.28125 -19.171875 C 17.988281 -19.722656 16.78125 -20.175781 15.65625 -20.53125 C 14.539062 -20.882812 13.398438 -21.0625 12.234375 -21.0625 C 10.148438 -21.0625 9.109375 -20.5 9.109375 -19.375 C 9.109375 -18.75 9.441406 -18.203125 10.109375 -17.734375 C 10.785156 -17.273438 12.253906 -16.59375 14.515625 -15.6875 C 16.523438 -14.875 18 -14.113281 18.9375 -13.40625 C 19.875 -12.695312 20.566406 -11.878906 21.015625 -10.953125 C 21.460938 -10.035156 21.6875 -8.9375 21.6875 -7.65625 Z M 21.6875 -7.65625 "/></g></g></g></g></g></svg>