<svg xmlns="http://www.w3.org/2000/svg" xmlns:xlink="http://www.w3.org/1999/xlink" width="1080" zoomAndPan="magnify" viewBox="0 0 810 112.499997" height="150" preserveAspectRatio="xMidYMid meet" version="1.0"><defs><g/><clipPath id="1412acc2ca"><path d="M 0.882812 0.1875 L 82.617188 0.1875 L 82.617188 81.921875 L 0.882812 81.921875 Z M 0.882812 0.1875 " clip-rule="nonzero"/></clipPath><clipPath id="da97f01d25"><path d="M 97 9 L 782.003906 9 L 782.003906 73 L 97 73 Z M 97 9 " clip-rule="nonzero"/></clipPath><clipPath id="b5916a0afa"><rect x="0" width="686" y="0" height="64"/></clipPath><clipPath id="c5a5db2589"><rect x="0" width="783" y="0" height="83"/></clipPath></defs><g transform="matrix(1, 0, 0, 1, 9, 15)"><g clip-path="url(#c5a5db2589)"><g clip-path="url(#1412acc2ca)"><path fill="#ffffff" d="M 41.691406 0.1875 C 19.1875 0.1875 0.882812 18.496094 0.882812 40.996094 L 16.578125 40.996094 C 16.578125 27.125 27.820312 15.882812 41.691406 15.882812 C 55.558594 15.882812 66.804688 27.125 66.804688 40.996094 C 66.804688 54.863281 55.558594 66.109375 41.691406 66.109375 L 41.691406 81.804688 C 64.195312 81.804688 82.5 63.496094 82.5 40.996094 C 82.5 18.496094 64.195312 0.1875 41.691406 0.1875 Z M 41.691406 66.109375 L 41.691406 47.273438 L 22.855469 47.273438 L 22.855469 66.109375 Z M 22.855469 66.109375 L 10.300781 66.109375 L 10.300781 78.664062 L 22.855469 78.664062 Z M 10.300781 66.109375 L 10.300781 56.691406 L 0.882812 56.691406 L 0.882812 66.109375 Z M 10.300781 66.109375 " fill-opacity="1" fill-rule="nonzero"/></g><g clip-path="url(#da97f01d25)"><g transform="matrix(1, 0, 0, 1, 97, 9)"><g clip-path="url(#b5916a0afa)"><g fill="#fa711c" fill-opacity="1"><g transform="translate(0.753826, 50.938054)"><g><path d="M 4.796875 0 L 4.796875 -39.34375 L 17.4375 -39.34375 L 17.4375 0 Z M 4.796875 0 "/></g></g></g><g fill="#fa711c" fill-opacity="1"><g transform="translate(22.998138, 50.938054)"><g><path d="M 21.28125 -39.34375 C 35.039062 -39.34375 41.921875 -32.785156 41.921875 -19.671875 C 41.921875 -6.554688 35.039062 0 21.28125 0 L 4.234375 0 L 4.234375 -39.34375 Z M 16.875 -9.4375 L 21.046875 -9.4375 C 26.347656 -9.4375 29 -12.273438 29 -17.953125 L 29 -21.390625 C 29 -27.066406 26.347656 -29.90625 21.046875 -29.90625 L 16.875 -29.90625 Z M 16.875 -9.4375 "/></g></g></g><g fill="#fa711c" fill-opacity="1"><g transform="translate(67.486762, 50.938054)"><g><path d="M 4.234375 -39.34375 L 38.265625 -39.34375 L 38.265625 -29.90625 L 16.875 -29.90625 L 16.875 -24.46875 L 35.171875 -24.46875 L 35.171875 -15.4375 L 16.875 -15.4375 L 16.875 -9.4375 L 38.65625 -9.4375 L 38.65625 0 L 4.234375 0 Z M 4.234375 -39.34375 "/></g></g></g><g fill="#fa711c" fill-opacity="1"><g transform="translate(108.773123, 50.938054)"><g><path d="M 32.375 0 L 15.84375 -19.09375 L 15.84375 0 L 4.234375 0 L 4.234375 -39.34375 L 15.265625 -39.34375 L 31.796875 -19.953125 L 31.796875 -39.34375 L 43.40625 -39.34375 L 43.40625 0 Z M 32.375 0 "/></g></g></g><g fill="#fa711c" fill-opacity="1"><g transform="translate(156.40684, 50.938054)"><g><path d="M 26.875 -29.28125 L 26.875 0 L 14.234375 0 L 14.234375 -29.28125 L 1.3125 -29.28125 L 1.3125 -39.34375 L 39.75 -39.34375 L 39.75 -29.28125 Z M 26.875 -29.28125 "/></g></g></g><g fill="#fa711c" fill-opacity="1"><g transform="translate(197.693201, 50.938054)"><g><path d="M 4.796875 0 L 4.796875 -39.34375 L 17.4375 -39.34375 L 17.4375 0 Z M 4.796875 0 "/></g></g></g><g fill="#fa711c" fill-opacity="1"><g transform="translate(219.937513, 50.938054)"><g><path d="M 4.234375 -39.34375 L 36.03125 -39.34375 L 36.03125 -29.90625 L 16.875 -29.90625 L 16.875 -23.15625 L 33.34375 -23.15625 L 33.34375 -14.125 L 16.875 -14.125 L 16.875 0 L 4.234375 0 Z M 4.234375 -39.34375 "/></g></g></g><g fill="#fa711c" fill-opacity="1"><g transform="translate(258.078781, 50.938054)"><g><path d="M 4.796875 0 L 4.796875 -39.34375 L 17.4375 -39.34375 L 17.4375 0 Z M 4.796875 0 "/></g></g></g><g fill="#fa711c" fill-opacity="1"><g transform="translate(280.323093, 50.938054)"><g><path d="M 22.984375 -40.03125 C 28.816406 -40.03125 33.429688 -38.570312 36.828125 -35.65625 C 40.222656 -32.738281 41.921875 -28.570312 41.921875 -23.15625 L 29.859375 -23.15625 C 29.859375 -25.445312 29.253906 -27.257812 28.046875 -28.59375 C 26.847656 -29.925781 25.144531 -30.59375 22.9375 -30.59375 C 20.375 -30.59375 18.492188 -29.789062 17.296875 -28.1875 C 16.097656 -26.59375 15.5 -24.363281 15.5 -21.5 L 15.5 -17.84375 C 15.5 -15.019531 16.097656 -12.796875 17.296875 -11.171875 C 18.492188 -9.554688 20.332031 -8.75 22.8125 -8.75 C 25.257812 -8.75 27.109375 -9.378906 28.359375 -10.640625 C 29.617188 -11.898438 30.25 -13.671875 30.25 -15.953125 L 41.921875 -15.953125 C 41.921875 -10.578125 40.269531 -6.457031 36.96875 -3.59375 C 33.675781 -0.738281 29.015625 0.6875 22.984375 0.6875 C 16.273438 0.6875 11.195312 -1.023438 7.75 -4.453125 C 4.300781 -7.890625 2.578125 -12.960938 2.578125 -19.671875 C 2.578125 -26.378906 4.300781 -31.445312 7.75 -34.875 C 11.195312 -38.3125 16.273438 -40.03125 22.984375 -40.03125 Z M 22.984375 -40.03125 "/></g></g></g><g fill="#fa711c" fill-opacity="1"><g transform="translate(324.811717, 50.938054)"><g><path d="M 30.59375 0 L 28.9375 -5.546875 L 15.15625 -5.546875 L 13.5 0 L 0.578125 0 L 14.921875 -39.34375 L 29.625 -39.34375 L 43.984375 0 Z M 17.78125 -14.359375 L 26.3125 -14.359375 L 22.1875 -28.359375 L 21.953125 -28.359375 Z M 17.78125 -14.359375 "/></g></g></g><g fill="#000000" fill-opacity="1"><g transform="translate(369.301154, 50.938054)"><g/></g></g><g fill="#ffffff" fill-opacity="1"><g transform="translate(388.347704, 50.938054)"><g><path d="M 4.234375 -39.34375 L 38.265625 -39.34375 L 38.265625 -29.90625 L 16.875 -29.90625 L 16.875 -24.46875 L 35.171875 -24.46875 L 35.171875 -15.4375 L 16.875 -15.4375 L 16.875 -9.4375 L 38.65625 -9.4375 L 38.65625 0 L 4.234375 0 Z M 4.234375 -39.34375 "/></g></g></g><g fill="#ffffff" fill-opacity="1"><g transform="translate(429.634065, 50.938054)"><g><path d="M 44.484375 0 L 29.171875 0 L 21.90625 -12.234375 L 21.671875 -12.234375 L 14.40625 0 L 0.234375 0 L 14.296875 -20.8125 L 1.59375 -39.34375 L 16.875 -39.34375 L 22.8125 -29.28125 L 23.046875 -29.28125 L 29.046875 -39.34375 L 43.171875 -39.34375 L 30.421875 -20.765625 Z M 44.484375 0 "/></g></g></g><g fill="#ffffff" fill-opacity="1"><g transform="translate(474.122689, 50.938054)"><g><path d="M 26.3125 -39.34375 C 28.75 -39.34375 30.921875 -38.78125 32.828125 -37.65625 C 34.734375 -36.53125 36.21875 -34.984375 37.28125 -33.015625 C 38.351562 -31.054688 38.890625 -28.859375 38.890625 -26.421875 L 38.890625 -25.671875 C 38.890625 -23.234375 38.351562 -21.019531 37.28125 -19.03125 C 36.21875 -17.050781 34.734375 -15.5 32.828125 -14.375 C 30.921875 -13.257812 28.75 -12.703125 26.3125 -12.703125 L 16.875 -12.703125 L 16.875 0 L 4.234375 0 L 4.234375 -39.34375 Z M 16.875 -21.90625 L 22.078125 -21.90625 C 23.410156 -21.90625 24.410156 -22.25 25.078125 -22.9375 C 25.742188 -23.625 26.078125 -24.554688 26.078125 -25.734375 L 26.078125 -26.1875 C 26.078125 -27.40625 25.742188 -28.347656 25.078125 -29.015625 C 24.410156 -29.691406 23.410156 -30.03125 22.078125 -30.03125 L 16.875 -30.03125 Z M 16.875 -21.90625 "/></g></g></g><g fill="#ffffff" fill-opacity="1"><g transform="translate(515.40905, 50.938054)"><g><path d="M 41.578125 -27.28125 C 41.578125 -24.875 40.925781 -22.695312 39.625 -20.75 C 38.332031 -18.8125 36.445312 -17.382812 33.96875 -16.46875 L 42.71875 0 L 28.53125 0 L 21.5625 -14.359375 L 16.875 -14.359375 L 16.875 0 L 4.234375 0 L 4.234375 -39.34375 L 28.3125 -39.34375 C 31.132812 -39.34375 33.546875 -38.796875 35.546875 -37.703125 C 37.546875 -36.617188 39.050781 -35.148438 40.0625 -33.296875 C 41.070312 -31.453125 41.578125 -29.445312 41.578125 -27.28125 Z M 28.703125 -26.765625 C 28.703125 -27.796875 28.359375 -28.648438 27.671875 -29.328125 C 26.992188 -30.015625 26.15625 -30.359375 25.15625 -30.359375 L 16.875 -30.359375 L 16.875 -23.109375 L 25.15625 -23.109375 C 26.15625 -23.109375 26.992188 -23.457031 27.671875 -24.15625 C 28.359375 -24.863281 28.703125 -25.734375 28.703125 -26.765625 Z M 28.703125 -26.765625 "/></g></g></g><g fill="#ffffff" fill-opacity="1"><g transform="translate(559.897674, 50.938054)"><g><path d="M 4.234375 -39.34375 L 38.265625 -39.34375 L 38.265625 -29.90625 L 16.875 -29.90625 L 16.875 -24.46875 L 35.171875 -24.46875 L 35.171875 -15.4375 L 16.875 -15.4375 L 16.875 -9.4375 L 38.65625 -9.4375 L 38.65625 0 L 4.234375 0 Z M 4.234375 -39.34375 "/></g></g></g><g fill="#ffffff" fill-opacity="1"><g transform="translate(601.184035, 50.938054)"><g><path d="M 20.765625 -40.03125 C 25.796875 -40.03125 29.929688 -39.007812 33.171875 -36.96875 C 36.410156 -34.925781 38.066406 -31.90625 38.140625 -27.90625 L 38.140625 -27.21875 L 26.3125 -27.21875 L 26.3125 -27.453125 C 26.3125 -28.597656 25.890625 -29.550781 25.046875 -30.3125 C 24.210938 -31.070312 22.9375 -31.453125 21.21875 -31.453125 C 19.539062 -31.453125 18.253906 -31.203125 17.359375 -30.703125 C 16.460938 -30.210938 16.015625 -29.601562 16.015625 -28.875 C 16.015625 -27.84375 16.625 -27.078125 17.84375 -26.578125 C 19.0625 -26.085938 21.023438 -25.578125 23.734375 -25.046875 C 26.898438 -24.398438 29.5 -23.722656 31.53125 -23.015625 C 33.570312 -22.304688 35.351562 -21.148438 36.875 -19.546875 C 38.40625 -17.953125 39.191406 -15.78125 39.234375 -13.03125 C 39.234375 -8.382812 37.660156 -4.9375 34.515625 -2.6875 C 31.367188 -0.4375 27.164062 0.6875 21.90625 0.6875 C 15.769531 0.6875 10.992188 -0.335938 7.578125 -2.390625 C 4.160156 -4.453125 2.453125 -8.097656 2.453125 -13.328125 L 14.40625 -13.328125 C 14.40625 -11.335938 14.921875 -10.007812 15.953125 -9.34375 C 16.984375 -8.675781 18.585938 -8.34375 20.765625 -8.34375 C 22.359375 -8.34375 23.679688 -8.515625 24.734375 -8.859375 C 25.785156 -9.203125 26.3125 -9.910156 26.3125 -10.984375 C 26.3125 -11.929688 25.726562 -12.644531 24.5625 -13.125 C 23.394531 -13.601562 21.5 -14.109375 18.875 -14.640625 C 15.664062 -15.328125 13.015625 -16.039062 10.921875 -16.78125 C 8.828125 -17.53125 7 -18.757812 5.4375 -20.46875 C 3.875 -22.1875 3.09375 -24.515625 3.09375 -27.453125 C 3.09375 -31.753906 4.757812 -34.925781 8.09375 -36.96875 C 11.425781 -39.007812 15.648438 -40.03125 20.765625 -40.03125 Z M 20.765625 -40.03125 "/></g></g></g><g fill="#ffffff" fill-opacity="1"><g transform="translate(642.470396, 50.938054)"><g><path d="M 20.765625 -40.03125 C 25.796875 -40.03125 29.929688 -39.007812 33.171875 -36.96875 C 36.410156 -34.925781 38.066406 -31.90625 38.140625 -27.90625 L 38.140625 -27.21875 L 26.3125 -27.21875 L 26.3125 -27.453125 C 26.3125 -28.597656 25.890625 -29.550781 25.046875 -30.3125 C 24.210938 -31.070312 22.9375 -31.453125 21.21875 -31.453125 C 19.539062 -31.453125 18.253906 -31.203125 17.359375 -30.703125 C 16.460938 -30.210938 16.015625 -29.601562 16.015625 -28.875 C 16.015625 -27.84375 16.625 -27.078125 17.84375 -26.578125 C 19.0625 -26.085938 21.023438 -25.578125 23.734375 -25.046875 C 26.898438 -24.398438 29.5 -23.722656 31.53125 -23.015625 C 33.570312 -22.304688 35.351562 -21.148438 36.875 -19.546875 C 38.40625 -17.953125 39.191406 -15.78125 39.234375 -13.03125 C 39.234375 -8.382812 37.660156 -4.9375 34.515625 -2.6875 C 31.367188 -0.4375 27.164062 0.6875 21.90625 0.6875 C 15.769531 0.6875 10.992188 -0.335938 7.578125 -2.390625 C 4.160156 -4.453125 2.453125 -8.097656 2.453125 -13.328125 L 14.40625 -13.328125 C 14.40625 -11.335938 14.921875 -10.007812 15.953125 -9.34375 C 16.984375 -8.675781 18.585938 -8.34375 20.765625 -8.34375 C 22.359375 -8.34375 23.679688 -8.515625 24.734375 -8.859375 C 25.785156 -9.203125 26.3125 -9.910156 26.3125 -10.984375 C 26.3125 -11.929688 25.726562 -12.644531 24.5625 -13.125 C 23.394531 -13.601562 21.5 -14.109375 18.875 -14.640625 C 15.664062 -15.328125 13.015625 -16.039062 10.921875 -16.78125 C 8.828125 -17.53125 7 -18.757812 5.4375 -20.46875 C 3.875 -22.1875 3.09375 -24.515625 3.09375 -27.453125 C 3.09375 -31.753906 4.757812 -34.925781 8.09375 -36.96875 C 11.425781 -39.007812 15.648438 -40.03125 20.765625 -40.03125 Z M 20.765625 -40.03125 "/></g></g></g></g></g></g></g></g></svg>